<mxfile host="app.diagrams.net" agent="Mozilla/5.0 (Windows NT 10.0; Win64; x64) AppleWebKit/537.36 (KHTML, like Gecko) Chrome/131.0.0.0 Safari/537.36" version="24.7.17">
  <diagram name="第 1 页" id="wc-so1yqofuQnBm7QXWz">
    <mxGraphModel dx="1221" dy="725" grid="1" gridSize="10" guides="1" tooltips="1" connect="1" arrows="1" fold="1" page="1" pageScale="1" pageWidth="827" pageHeight="1169" math="0" shadow="0">
      <root>
        <mxCell id="0" />
        <mxCell id="1" parent="0" />
        <mxCell id="nJ6K13YA9301tsw5OOz_-17" style="edgeStyle=orthogonalEdgeStyle;rounded=0;orthogonalLoop=1;jettySize=auto;html=1;exitX=0.5;exitY=1;exitDx=0;exitDy=0;entryX=0.5;entryY=0;entryDx=0;entryDy=0;" edge="1" parent="1" source="nJ6K13YA9301tsw5OOz_-10" target="nJ6K13YA9301tsw5OOz_-12">
          <mxGeometry relative="1" as="geometry" />
        </mxCell>
        <mxCell id="nJ6K13YA9301tsw5OOz_-10" value="" style="rounded=0;whiteSpace=wrap;html=1;fillColor=none;dashed=1;dashPattern=8 8;" vertex="1" parent="1">
          <mxGeometry x="230" y="290" width="400" height="200" as="geometry" />
        </mxCell>
        <mxCell id="nJ6K13YA9301tsw5OOz_-16" style="edgeStyle=orthogonalEdgeStyle;rounded=0;orthogonalLoop=1;jettySize=auto;html=1;exitX=0.5;exitY=1;exitDx=0;exitDy=0;entryX=0.5;entryY=0;entryDx=0;entryDy=0;" edge="1" parent="1" source="nJ6K13YA9301tsw5OOz_-4" target="nJ6K13YA9301tsw5OOz_-10">
          <mxGeometry relative="1" as="geometry" />
        </mxCell>
        <mxCell id="nJ6K13YA9301tsw5OOz_-4" value="" style="rounded=0;whiteSpace=wrap;html=1;fillColor=none;dashed=1;dashPattern=8 8;" vertex="1" parent="1">
          <mxGeometry x="230" y="70" width="400" height="200" as="geometry" />
        </mxCell>
        <mxCell id="nJ6K13YA9301tsw5OOz_-1" value="&lt;font style=&quot;font-size: 16px;&quot;&gt;顾及空间坐标信息的龙卷雷达回波细粒度识别&lt;/font&gt;" style="rounded=0;whiteSpace=wrap;html=1;fillColor=#f5f5f5;strokeColor=#666666;fontColor=#333333;" vertex="1" parent="1">
          <mxGeometry x="230" y="30" width="400" height="30" as="geometry" />
        </mxCell>
        <mxCell id="nJ6K13YA9301tsw5OOz_-2" value="&lt;font style=&quot;font-size: 16px;&quot;&gt;研&lt;/font&gt;&lt;div&gt;&lt;font style=&quot;font-size: 16px;&quot;&gt;究&lt;/font&gt;&lt;/div&gt;&lt;div&gt;&lt;font style=&quot;font-size: 16px;&quot;&gt;背&lt;/font&gt;&lt;div&gt;&lt;font style=&quot;font-size: 16px;&quot;&gt;景&lt;/font&gt;&lt;/div&gt;&lt;/div&gt;" style="rounded=0;whiteSpace=wrap;html=1;fillColor=#ffe6cc;strokeColor=#d79b00;" vertex="1" parent="1">
          <mxGeometry x="240" y="80" width="30" height="180" as="geometry" />
        </mxCell>
        <mxCell id="nJ6K13YA9301tsw5OOz_-3" value="&lt;font style=&quot;font-size: 16px;&quot;&gt;研&lt;/font&gt;&lt;div&gt;&lt;font style=&quot;font-size: 16px;&quot;&gt;究&lt;/font&gt;&lt;/div&gt;&lt;div&gt;&lt;span style=&quot;font-size: 16px;&quot;&gt;框架&lt;/span&gt;&lt;/div&gt;" style="rounded=0;whiteSpace=wrap;html=1;fillColor=#dae8fc;strokeColor=#6c8ebf;" vertex="1" parent="1">
          <mxGeometry x="240" y="300" width="30" height="180" as="geometry" />
        </mxCell>
        <mxCell id="nJ6K13YA9301tsw5OOz_-5" value="&lt;span style=&quot;font-size: 16px;&quot;&gt;龙卷风时空尺度小、致灾风险大、预警难度高&lt;/span&gt;" style="rounded=0;whiteSpace=wrap;html=1;fillColor=#fff2cc;strokeColor=#d6b656;" vertex="1" parent="1">
          <mxGeometry x="290" y="80" width="330" height="30" as="geometry" />
        </mxCell>
        <mxCell id="nJ6K13YA9301tsw5OOz_-6" value="&lt;span style=&quot;font-size: 16px;&quot;&gt;基于气象知识和机器学习的方法准确率低&lt;/span&gt;" style="rounded=0;whiteSpace=wrap;html=1;fillColor=#fff2cc;strokeColor=#d6b656;" vertex="1" parent="1">
          <mxGeometry x="290" y="180" width="330" height="30" as="geometry" />
        </mxCell>
        <mxCell id="nJ6K13YA9301tsw5OOz_-7" value="&lt;span style=&quot;font-size: 16px;&quot;&gt;现有深度学习方法未充分适应龙卷风识别任务&lt;/span&gt;" style="rounded=0;whiteSpace=wrap;html=1;fillColor=#fff2cc;strokeColor=#d6b656;" vertex="1" parent="1">
          <mxGeometry x="290" y="230" width="330" height="30" as="geometry" />
        </mxCell>
        <mxCell id="nJ6K13YA9301tsw5OOz_-8" value="&lt;span style=&quot;font-size: 16px;&quot;&gt;龙卷同其他对流系统难区分，需细粒度识别&lt;/span&gt;" style="rounded=0;whiteSpace=wrap;html=1;fillColor=#fff2cc;strokeColor=#d6b656;" vertex="1" parent="1">
          <mxGeometry x="290" y="130" width="330" height="30" as="geometry" />
        </mxCell>
        <mxCell id="nJ6K13YA9301tsw5OOz_-11" value="&lt;span style=&quot;font-size: 16px;&quot;&gt;数据集为公开雷达回波数据集TorNet&lt;/span&gt;" style="rounded=0;whiteSpace=wrap;html=1;fillColor=#CCFFE6;strokeColor=#82b366;" vertex="1" parent="1">
          <mxGeometry x="290" y="300" width="330" height="30" as="geometry" />
        </mxCell>
        <mxCell id="nJ6K13YA9301tsw5OOz_-12" value="&lt;span style=&quot;font-size: 16px;&quot;&gt;提出顾及空间坐标信息的&lt;/span&gt;&lt;span style=&quot;font-size: 16px; background-color: initial;&quot;&gt;龙卷雷达回波细粒度识别模型&lt;/span&gt;" style="rounded=0;whiteSpace=wrap;html=1;fillColor=#fad9d5;strokeColor=#ae4132;" vertex="1" parent="1">
          <mxGeometry x="230" y="510" width="400" height="30" as="geometry" />
        </mxCell>
        <mxCell id="nJ6K13YA9301tsw5OOz_-13" value="&lt;span style=&quot;font-size: 16px;&quot;&gt;顾及空间坐标形式的坐标信息融合模块&lt;/span&gt;" style="rounded=0;whiteSpace=wrap;html=1;fillColor=#CCFFFF;strokeColor=#6c8ebf;" vertex="1" parent="1">
          <mxGeometry x="290" y="350" width="330" height="30" as="geometry" />
        </mxCell>
        <mxCell id="nJ6K13YA9301tsw5OOz_-14" value="&lt;span style=&quot;font-size: 16px;&quot;&gt;多尺度强对流细粒度特征提取模块&lt;/span&gt;" style="rounded=0;whiteSpace=wrap;html=1;fillColor=#CCFFFF;strokeColor=#6c8ebf;" vertex="1" parent="1">
          <mxGeometry x="290" y="400" width="330" height="30" as="geometry" />
        </mxCell>
        <mxCell id="nJ6K13YA9301tsw5OOz_-15" value="&lt;span style=&quot;font-size: 16px;&quot;&gt;深度度量学习、长尾学习和对比学习策略&lt;/span&gt;" style="rounded=0;whiteSpace=wrap;html=1;fillColor=#CCFFFF;strokeColor=#6c8ebf;" vertex="1" parent="1">
          <mxGeometry x="290" y="450" width="330" height="30" as="geometry" />
        </mxCell>
      </root>
    </mxGraphModel>
  </diagram>
</mxfile>
